<svg xmlns="http://www.w3.org/2000/svg" width="47" height="21" viewBox="0 0 47 21">
  <defs>
    <style>
      .cls-1 {
        fill: #e1e1e1;
        fill-rule: evenodd;
      }
    </style>
  </defs>
  <path id="new-letter.svg" class="cls-1" d="M227.439,4926a3.892,3.892,0,0,1-3.825-3.95v-13.09a3.9,3.9,0,0,1,3.825-3.96h20.737a3.9,3.9,0,0,1,3.825,3.96v13.09a3.892,3.892,0,0,1-3.825,3.95H227.439Zm-2.986-3.95a3.037,3.037,0,0,0,2.986,3.08h20.694a3.037,3.037,0,0,0,2.986-3.08v-13.09a3.039,3.039,0,0,0-2.986-3.09H227.4a3.039,3.039,0,0,0-2.986,3.09v0.12h0.043v12.97Zm3.594-.04a0.349,0.349,0,0,1-.288-0.12,0.458,0.458,0,0,1,.028-0.65l6.743-6.15-6.755-5.38a0.446,0.446,0,0,1-.066-0.58,0.4,0.4,0,0,1,.324-0.16,0.35,0.35,0,0,1,.241.09l9.534,7.63,9.532-7.63a0.356,0.356,0,0,1,.242-0.09,0.4,0.4,0,0,1,.324.16,0.439,0.439,0,0,1-.067.58l-6.666,5.34,6.7,6.2a0.431,0.431,0,0,1,.029.58,0.351,0.351,0,0,1-.294.14,0.371,0.371,0,0,1-.26-0.1l-6.85-6.26-2.466,1.99a0.375,0.375,0,0,1-.228.11,0.36,0.36,0,0,1-.217-0.1l-2.391-1.91-6.887,6.21A0.4,0.4,0,0,1,228.047,4922.01Zm-16.534-3.28a0.385,0.385,0,0,1-.4-0.41,0.38,0.38,0,0,1,.4-0.41h7.071a0.38,0.38,0,0,1,.4.41,0.385,0.385,0,0,1-.4.41h-7.071Zm-6.117-3.76a0.41,0.41,0,0,1,0-.82h13.188a0.41,0.41,0,0,1,0,.82H205.4Zm3.037-3.76a0.415,0.415,0,0,1,0-.83H218.65a0.373,0.373,0,0,1,.332.41,0.388,0.388,0,0,1-.4.42H208.433Z" transform="translate(-205 -4905)"/>
</svg>
